{
	"patcher" : 	{
		"fileversion" : 1,
		"appversion" : 		{
			"major" : 8,
			"minor" : 1,
			"revision" : 10,
			"architecture" : "x64",
			"modernui" : 1
		}
,
		"classnamespace" : "box",
		"rect" : [ 85.0, 86.0, 1425.0, 1031.0 ],
		"bglocked" : 0,
		"openinpresentation" : 0,
		"default_fontsize" : 14.0,
		"default_fontface" : 0,
		"default_fontname" : "Arial",
		"gridonopen" : 1,
		"gridsize" : [ 15.0, 15.0 ],
		"gridsnaponopen" : 1,
		"objectsnaponopen" : 1,
		"statusbarvisible" : 2,
		"toolbarvisible" : 1,
		"lefttoolbarpinned" : 0,
		"toptoolbarpinned" : 0,
		"righttoolbarpinned" : 0,
		"bottomtoolbarpinned" : 0,
		"toolbars_unpinned_last_save" : 0,
		"tallnewobj" : 0,
		"boxanimatetime" : 200,
		"enablehscroll" : 1,
		"enablevscroll" : 1,
		"devicewidth" : 0.0,
		"description" : "",
		"digest" : "",
		"tags" : "",
		"style" : "",
		"subpatcher_template" : "",
		"showontab" : 1,
		"assistshowspatchername" : 0,
		"boxes" : [ 			{
				"box" : 				{
					"id" : "obj-15",
					"maxclass" : "newobj",
					"numinlets" : 2,
					"numoutlets" : 1,
					"outlettype" : [ "int" ],
					"patching_rect" : [ 274.0, 51.5, 29.5, 24.0 ],
					"text" : "+ 1"
				}

			}
, 			{
				"box" : 				{
					"id" : "obj-14",
					"maxclass" : "newobj",
					"numinlets" : 2,
					"numoutlets" : 1,
					"outlettype" : [ "int" ],
					"patching_rect" : [ 242.0, 51.5, 29.5, 24.0 ],
					"text" : "+ 1"
				}

			}
, 			{
				"box" : 				{
					"format" : 6,
					"id" : "obj-11",
					"maxclass" : "flonum",
					"numinlets" : 1,
					"numoutlets" : 2,
					"outlettype" : [ "", "bang" ],
					"parameter_enable" : 0,
					"patching_rect" : [ 102.0, 227.5, 50.0, 24.0 ]
				}

			}
, 			{
				"box" : 				{
					"format" : 6,
					"id" : "obj-8",
					"maxclass" : "flonum",
					"numinlets" : 1,
					"numoutlets" : 2,
					"outlettype" : [ "", "bang" ],
					"parameter_enable" : 0,
					"patching_rect" : [ 102.0, 316.0, 50.0, 24.0 ]
				}

			}
, 			{
				"box" : 				{
					"bgmode" : 0,
					"border" : 0,
					"clickthrough" : 0,
					"enablehscroll" : 0,
					"enablevscroll" : 0,
					"id" : "obj-1",
					"lockeddragscroll" : 0,
					"maxclass" : "bpatcher",
					"name" : "jointpickerBP.maxpat",
					"numinlets" : 3,
					"numoutlets" : 6,
					"offset" : [ 0.0, 0.0 ],
					"outlettype" : [ "float", "float", "float", "", "", "" ],
					"patching_rect" : [ 242.0, 6.0, 142.0, 32.0 ],
					"viewvisibility" : 1
				}

			}
, 			{
				"box" : 				{
					"fontname" : "Arial",
					"fontsize" : 14.0,
					"format" : 6,
					"id" : "obj-43",
					"maxclass" : "flonum",
					"numinlets" : 1,
					"numoutlets" : 2,
					"outlettype" : [ "", "bang" ],
					"parameter_enable" : 0,
					"patching_rect" : [ 310.0, 227.5, 50.0, 24.0 ]
				}

			}
, 			{
				"box" : 				{
					"fontname" : "Arial",
					"fontsize" : 14.0,
					"id" : "obj-37",
					"maxclass" : "message",
					"numinlets" : 2,
					"numoutlets" : 1,
					"outlettype" : [ "" ],
					"patching_rect" : [ 268.0, 493.0, 32.5, 24.0 ],
					"text" : "1"
				}

			}
, 			{
				"box" : 				{
					"fontname" : "Arial",
					"fontsize" : 14.0,
					"id" : "obj-35",
					"maxclass" : "newobj",
					"numinlets" : 2,
					"numoutlets" : 1,
					"outlettype" : [ "bang" ],
					"patching_rect" : [ 268.0, 456.0, 79.0, 24.0 ],
					"text" : "delay 1000"
				}

			}
, 			{
				"box" : 				{
					"fontname" : "Arial",
					"fontsize" : 14.0,
					"id" : "obj-34",
					"maxclass" : "newobj",
					"numinlets" : 1,
					"numoutlets" : 3,
					"outlettype" : [ "bang", "bang", "int" ],
					"patching_rect" : [ 268.0, 415.0, 49.0, 24.0 ],
					"text" : "t b b 0"
				}

			}
, 			{
				"box" : 				{
					"floatoutput" : 1,
					"id" : "obj-33",
					"maxclass" : "slider",
					"numinlets" : 1,
					"numoutlets" : 1,
					"outlettype" : [ "" ],
					"parameter_enable" : 0,
					"patching_rect" : [ 274.0, 81.5, 20.0, 140.0 ],
					"size" : 6.0
				}

			}
, 			{
				"box" : 				{
					"fontname" : "Arial",
					"fontsize" : 14.0,
					"id" : "obj-32",
					"maxclass" : "newobj",
					"numinlets" : 2,
					"numoutlets" : 1,
					"outlettype" : [ "int" ],
					"patching_rect" : [ 268.0, 331.5, 42.0, 24.0 ],
					"text" : "> 0.5"
				}

			}
, 			{
				"box" : 				{
					"fontname" : "Arial",
					"fontsize" : 14.0,
					"id" : "obj-29",
					"maxclass" : "newobj",
					"numinlets" : 2,
					"numoutlets" : 1,
					"outlettype" : [ "" ],
					"patching_rect" : [ 268.0, 277.0, 61.0, 24.0 ],
					"text" : "gate 1 1"
				}

			}
, 			{
				"box" : 				{
					"id" : "obj-28",
					"maxclass" : "button",
					"numinlets" : 1,
					"numoutlets" : 1,
					"outlettype" : [ "bang" ],
					"parameter_enable" : 0,
					"patching_rect" : [ 528.0, 51.5, 34.5, 34.5 ]
				}

			}
, 			{
				"box" : 				{
					"fontname" : "Arial",
					"fontsize" : 14.0,
					"id" : "obj-26",
					"maxclass" : "newobj",
					"numinlets" : 2,
					"numoutlets" : 1,
					"outlettype" : [ "int" ],
					"patching_rect" : [ 528.0, 133.5, 38.0, 24.0 ],
					"text" : "+ 60"
				}

			}
, 			{
				"box" : 				{
					"fontname" : "Arial",
					"fontsize" : 14.0,
					"id" : "obj-25",
					"maxclass" : "newobj",
					"numinlets" : 2,
					"numoutlets" : 1,
					"outlettype" : [ "int" ],
					"patching_rect" : [ 528.0, 91.5, 77.0, 24.0 ],
					"text" : "random 24"
				}

			}
, 			{
				"box" : 				{
					"fontname" : "Arial",
					"fontsize" : 14.0,
					"id" : "obj-24",
					"maxclass" : "newobj",
					"numinlets" : 2,
					"numoutlets" : 2,
					"outlettype" : [ "bang", "" ],
					"patching_rect" : [ 268.0, 378.0, 40.0, 24.0 ],
					"text" : "sel 1"
				}

			}
, 			{
				"box" : 				{
					"fontname" : "Arial",
					"fontsize" : 14.0,
					"id" : "obj-21",
					"maxclass" : "newobj",
					"numinlets" : 6,
					"numoutlets" : 1,
					"outlettype" : [ "" ],
					"patching_rect" : [ 102.0, 277.0, 139.0, 24.0 ],
					"text" : "scale -2. 2. 200. 600."
				}

			}
, 			{
				"box" : 				{
					"fontname" : "Arial",
					"fontsize" : 14.0,
					"id" : "obj-18",
					"maxclass" : "newobj",
					"numinlets" : 1,
					"numoutlets" : 0,
					"patching_rect" : [ 102.0, 394.0, 93.0, 24.0 ],
					"text" : "s delayTimeL"
				}

			}
, 			{
				"box" : 				{
					"fontname" : "Arial",
					"fontsize" : 14.0,
					"id" : "obj-17",
					"maxclass" : "message",
					"numinlets" : 2,
					"numoutlets" : 1,
					"outlettype" : [ "" ],
					"patching_rect" : [ 102.0, 356.0, 46.0, 24.0 ],
					"text" : "$1 30"
				}

			}
, 			{
				"box" : 				{
					"floatoutput" : 1,
					"id" : "obj-13",
					"maxclass" : "slider",
					"min" : -2.0,
					"numinlets" : 1,
					"numoutlets" : 1,
					"outlettype" : [ "" ],
					"parameter_enable" : 0,
					"patching_rect" : [ 242.0, 81.5, 20.0, 140.0 ],
					"size" : 4.0
				}

			}
, 			{
				"box" : 				{
					"fontname" : "Arial",
					"fontsize" : 12.0,
					"id" : "obj-6",
					"linecount" : 10,
					"maxclass" : "message",
					"numinlets" : 2,
					"numoutlets" : 1,
					"outlettype" : [ "" ],
					"patching_rect" : [ 15.0, 51.5, 173.0, 156.0 ],
					"text" : ";\rdelayOnOff 1;\rsamplerOnOff 1;\rsamplerVolL 100 1000;\rdelayVolL 90 1000;\rload1 glassBell036.aif;\rload2 glassBell048.aif;\rload3 glassBell060.aif;\rload4 glassBell072.aif;\rsamplePitches 36 48 60 72;\r"
				}

			}
, 			{
				"box" : 				{
					"fontname" : "Arial",
					"fontsize" : 12.0,
					"id" : "obj-2",
					"maxclass" : "newobj",
					"numinlets" : 0,
					"numoutlets" : 1,
					"outlettype" : [ "" ],
					"patching_rect" : [ 15.0, 6.0, 67.0, 22.0 ],
					"text" : "r loadbang"
				}

			}
, 			{
				"box" : 				{
					"fontname" : "Arial",
					"fontsize" : 14.0,
					"id" : "obj-9",
					"maxclass" : "number",
					"numinlets" : 1,
					"numoutlets" : 2,
					"outlettype" : [ "", "bang" ],
					"parameter_enable" : 0,
					"patching_rect" : [ 528.0, 186.5, 50.0, 24.0 ]
				}

			}
, 			{
				"box" : 				{
					"id" : "obj-7",
					"maxclass" : "ezdac~",
					"numinlets" : 2,
					"numoutlets" : 0,
					"patching_rect" : [ 528.0, 631.0, 45.0, 45.0 ]
				}

			}
, 			{
				"box" : 				{
					"fontname" : "Arial",
					"fontsize" : 14.0,
					"id" : "obj-5",
					"maxclass" : "message",
					"numinlets" : 2,
					"numoutlets" : 1,
					"outlettype" : [ "" ],
					"patching_rect" : [ 528.0, 226.5, 100.0, 24.0 ],
					"text" : "$1 100 1 5000"
				}

			}
, 			{
				"box" : 				{
					"args" : [ 0, 0, 0, 0, 0, 0, 0, 0 ],
					"bgmode" : 0,
					"border" : 0,
					"clickthrough" : 0,
					"enablehscroll" : 0,
					"enablevscroll" : 0,
					"id" : "obj-3",
					"lockeddragscroll" : 0,
					"maxclass" : "bpatcher",
					"name" : "samplerNew8BP.maxpat",
					"numinlets" : 3,
					"numoutlets" : 4,
					"offset" : [ 0.0, 0.0 ],
					"outlettype" : [ "", "", "signal", "signal" ],
					"patching_rect" : [ 528.0, 268.5, 235.0, 150.0 ],
					"viewvisibility" : 1
				}

			}
, 			{
				"box" : 				{
					"args" : [ 0, 0, 0, 0, 0, 0, 0, 0 ],
					"bgmode" : 0,
					"border" : 0,
					"clickthrough" : 0,
					"enablehscroll" : 0,
					"enablevscroll" : 0,
					"id" : "obj-12",
					"lockeddragscroll" : 0,
					"maxclass" : "bpatcher",
					"name" : "delayBP.maxpat",
					"numinlets" : 3,
					"numoutlets" : 1,
					"offset" : [ 0.0, 0.0 ],
					"outlettype" : [ "signal" ],
					"patching_rect" : [ 528.0, 448.0, 225.0, 160.0 ],
					"varname" : "delayBP",
					"viewvisibility" : 1
				}

			}
 ],
		"lines" : [ 			{
				"patchline" : 				{
					"destination" : [ "obj-11", 0 ],
					"midpoints" : [ 251.5, 39.0, 198.0, 39.0, 198.0, 222.0, 111.5, 222.0 ],
					"order" : 1,
					"source" : [ "obj-1", 0 ]
				}

			}
, 			{
				"patchline" : 				{
					"destination" : [ "obj-14", 0 ],
					"midpoints" : [ 251.5, 39.0, 251.5, 39.0 ],
					"order" : 0,
					"source" : [ "obj-1", 0 ]
				}

			}
, 			{
				"patchline" : 				{
					"destination" : [ "obj-15", 0 ],
					"midpoints" : [ 276.100000000000023, 45.0, 283.5, 45.0 ],
					"order" : 1,
					"source" : [ "obj-1", 1 ]
				}

			}
, 			{
				"patchline" : 				{
					"destination" : [ "obj-43", 0 ],
					"midpoints" : [ 276.100000000000023, 48.0, 319.5, 48.0 ],
					"order" : 0,
					"source" : [ "obj-1", 1 ]
				}

			}
, 			{
				"patchline" : 				{
					"destination" : [ "obj-21", 0 ],
					"midpoints" : [ 111.5, 252.0, 111.5, 252.0 ],
					"source" : [ "obj-11", 0 ]
				}

			}
, 			{
				"patchline" : 				{
					"destination" : [ "obj-7", 1 ],
					"order" : 0,
					"source" : [ "obj-12", 0 ]
				}

			}
, 			{
				"patchline" : 				{
					"destination" : [ "obj-7", 0 ],
					"order" : 1,
					"source" : [ "obj-12", 0 ]
				}

			}
, 			{
				"patchline" : 				{
					"destination" : [ "obj-13", 0 ],
					"midpoints" : [ 251.5, 78.0, 251.5, 78.0 ],
					"source" : [ "obj-14", 0 ]
				}

			}
, 			{
				"patchline" : 				{
					"destination" : [ "obj-33", 0 ],
					"midpoints" : [ 283.5, 78.0, 283.5, 78.0 ],
					"source" : [ "obj-15", 0 ]
				}

			}
, 			{
				"patchline" : 				{
					"destination" : [ "obj-18", 0 ],
					"midpoints" : [ 111.5, 381.0, 111.5, 381.0 ],
					"source" : [ "obj-17", 0 ]
				}

			}
, 			{
				"patchline" : 				{
					"destination" : [ "obj-6", 0 ],
					"source" : [ "obj-2", 0 ]
				}

			}
, 			{
				"patchline" : 				{
					"destination" : [ "obj-8", 0 ],
					"midpoints" : [ 111.5, 303.0, 111.5, 303.0 ],
					"source" : [ "obj-21", 0 ]
				}

			}
, 			{
				"patchline" : 				{
					"destination" : [ "obj-34", 0 ],
					"midpoints" : [ 277.5, 405.0, 277.5, 405.0 ],
					"source" : [ "obj-24", 0 ]
				}

			}
, 			{
				"patchline" : 				{
					"destination" : [ "obj-26", 0 ],
					"midpoints" : [ 537.5, 116.0, 537.5, 116.0 ],
					"source" : [ "obj-25", 0 ]
				}

			}
, 			{
				"patchline" : 				{
					"destination" : [ "obj-9", 0 ],
					"midpoints" : [ 537.5, 158.0, 537.5, 158.0 ],
					"source" : [ "obj-26", 0 ]
				}

			}
, 			{
				"patchline" : 				{
					"destination" : [ "obj-25", 0 ],
					"midpoints" : [ 537.5, 89.0, 537.5, 89.0 ],
					"source" : [ "obj-28", 0 ]
				}

			}
, 			{
				"patchline" : 				{
					"destination" : [ "obj-32", 0 ],
					"midpoints" : [ 277.5, 303.0, 277.5, 303.0 ],
					"source" : [ "obj-29", 0 ]
				}

			}
, 			{
				"patchline" : 				{
					"destination" : [ "obj-12", 0 ],
					"midpoints" : [ 753.5, 435.0, 537.5, 435.0 ],
					"source" : [ "obj-3", 3 ]
				}

			}
, 			{
				"patchline" : 				{
					"destination" : [ "obj-12", 0 ],
					"midpoints" : [ 681.5, 435.0, 537.5, 435.0 ],
					"source" : [ "obj-3", 2 ]
				}

			}
, 			{
				"patchline" : 				{
					"destination" : [ "obj-24", 0 ],
					"midpoints" : [ 277.5, 357.0, 277.5, 357.0 ],
					"source" : [ "obj-32", 0 ]
				}

			}
, 			{
				"patchline" : 				{
					"destination" : [ "obj-28", 0 ],
					"midpoints" : [ 292.5, 441.0, 513.0, 441.0, 513.0, 45.0, 537.5, 45.0 ],
					"source" : [ "obj-34", 1 ]
				}

			}
, 			{
				"patchline" : 				{
					"destination" : [ "obj-29", 0 ],
					"midpoints" : [ 307.5, 445.0, 255.0, 445.0, 255.0, 273.0, 277.5, 273.0 ],
					"source" : [ "obj-34", 2 ]
				}

			}
, 			{
				"patchline" : 				{
					"destination" : [ "obj-35", 0 ],
					"midpoints" : [ 277.5, 441.0, 277.5, 441.0 ],
					"source" : [ "obj-34", 0 ]
				}

			}
, 			{
				"patchline" : 				{
					"destination" : [ "obj-37", 0 ],
					"midpoints" : [ 277.5, 483.0, 277.5, 483.0 ],
					"source" : [ "obj-35", 0 ]
				}

			}
, 			{
				"patchline" : 				{
					"destination" : [ "obj-29", 0 ],
					"midpoints" : [ 277.5, 519.0, 247.0, 519.0, 247.0, 265.0, 277.5, 265.0 ],
					"source" : [ "obj-37", 0 ]
				}

			}
, 			{
				"patchline" : 				{
					"destination" : [ "obj-29", 1 ],
					"midpoints" : [ 319.5, 252.0, 319.5, 252.0 ],
					"source" : [ "obj-43", 0 ]
				}

			}
, 			{
				"patchline" : 				{
					"destination" : [ "obj-3", 0 ],
					"source" : [ "obj-5", 0 ]
				}

			}
, 			{
				"patchline" : 				{
					"destination" : [ "obj-17", 0 ],
					"midpoints" : [ 111.5, 342.0, 111.5, 342.0 ],
					"source" : [ "obj-8", 0 ]
				}

			}
, 			{
				"patchline" : 				{
					"destination" : [ "obj-5", 0 ],
					"source" : [ "obj-9", 0 ]
				}

			}
 ],
		"dependency_cache" : [ 			{
				"name" : "delayBP.maxpat",
				"bootpath" : "~/Documents/GitHub/UBCToolbox/UBCToolbox_2.0/patchers/effects/delay",
				"patcherrelativepath" : "../../../UBCToolbox/UBCToolbox_2.0/patchers/effects/delay",
				"type" : "JSON",
				"implicit" : 1
			}
, 			{
				"name" : "delayKH.maxpat",
				"bootpath" : "~/Documents/GitHub/UBCToolbox/UBCToolbox_2.0/patchers/effects/delay/lib",
				"patcherrelativepath" : "../../../UBCToolbox/UBCToolbox_2.0/patchers/effects/delay/lib",
				"type" : "JSON",
				"implicit" : 1
			}
, 			{
				"name" : "mixKH.abs.maxpat",
				"bootpath" : "~/Documents/GitHub/UBCToolbox/UBCToolbox_2.0/patchers/ubcLib",
				"patcherrelativepath" : "../../../UBCToolbox/UBCToolbox_2.0/patchers/ubcLib",
				"type" : "JSON",
				"implicit" : 1
			}
, 			{
				"name" : "gainScale.maxpat",
				"bootpath" : "~/Documents/GitHub/UBCToolbox/UBCToolbox_2.0/patchers/ubcLib",
				"patcherrelativepath" : "../../../UBCToolbox/UBCToolbox_2.0/patchers/ubcLib",
				"type" : "JSON",
				"implicit" : 1
			}
, 			{
				"name" : "lineKH.maxpat",
				"bootpath" : "~/Documents/GitHub/UBCToolbox/UBCToolbox_2.0/patchers/ubcLib",
				"patcherrelativepath" : "../../../UBCToolbox/UBCToolbox_2.0/patchers/ubcLib",
				"type" : "JSON",
				"implicit" : 1
			}
, 			{
				"name" : "MRrC.maxpat",
				"bootpath" : "~/Documents/GitHub/UBCToolbox/UBCToolbox_2.0/patchers/ubcLib",
				"patcherrelativepath" : "../../../UBCToolbox/UBCToolbox_2.0/patchers/ubcLib",
				"type" : "JSON",
				"implicit" : 1
			}
, 			{
				"name" : "multiName_.maxpat",
				"bootpath" : "~/Documents/GitHub/UBCToolbox/UBCToolbox_2.0/patchers/ubcLib",
				"patcherrelativepath" : "../../../UBCToolbox/UBCToolbox_2.0/patchers/ubcLib",
				"type" : "JSON",
				"implicit" : 1
			}
, 			{
				"name" : "multiNameNonZero.maxpat",
				"bootpath" : "~/Documents/GitHub/UBCToolbox/UBCToolbox_2.0/patchers/ubcLib",
				"patcherrelativepath" : "../../../UBCToolbox/UBCToolbox_2.0/patchers/ubcLib",
				"type" : "JSON",
				"implicit" : 1
			}
, 			{
				"name" : "WetDrySlider4.png",
				"bootpath" : "~/Documents/GitHub/UBCToolbox/UBCToolbox_2.0/media",
				"patcherrelativepath" : "../../../UBCToolbox/UBCToolbox_2.0/media",
				"type" : "PNG",
				"implicit" : 1
			}
, 			{
				"name" : "wetDryKnob2.png",
				"bootpath" : "~/Documents/GitHub/UBCToolbox/UBCToolbox_2.0/media",
				"patcherrelativepath" : "../../../UBCToolbox/UBCToolbox_2.0/media",
				"type" : "PNG",
				"implicit" : 1
			}
, 			{
				"name" : "spiral01.png",
				"bootpath" : "~/Documents/GitHub/UBCToolbox/UBCToolbox_2.0/media",
				"patcherrelativepath" : "../../../UBCToolbox/UBCToolbox_2.0/media",
				"type" : "PNG",
				"implicit" : 1
			}
, 			{
				"name" : "info.png",
				"bootpath" : "~/Documents/GitHub/UBCToolbox/UBCToolbox_2.0/media",
				"patcherrelativepath" : "../../../UBCToolbox/UBCToolbox_2.0/media",
				"type" : "PNG",
				"implicit" : 1
			}
, 			{
				"name" : "muter.maxpat",
				"bootpath" : "~/Documents/GitHub/UBCToolbox/UBCToolbox_2.0/patchers/ubcLib",
				"patcherrelativepath" : "../../../UBCToolbox/UBCToolbox_2.0/patchers/ubcLib",
				"type" : "JSON",
				"implicit" : 1
			}
, 			{
				"name" : "nTbp_.maxpat",
				"bootpath" : "~/Documents/GitHub/UBCToolbox/UBCToolbox_2.0/patchers/ubcLib",
				"patcherrelativepath" : "../../../UBCToolbox/UBCToolbox_2.0/patchers/ubcLib",
				"type" : "JSON",
				"implicit" : 1
			}
, 			{
				"name" : "sliderTrack6.png",
				"bootpath" : "~/Documents/GitHub/UBCToolbox/UBCToolbox_2.0/media",
				"patcherrelativepath" : "../../../UBCToolbox/UBCToolbox_2.0/media",
				"type" : "PNG",
				"implicit" : 1
			}
, 			{
				"name" : "sliderKnob3.png",
				"bootpath" : "~/Documents/GitHub/UBCToolbox/UBCToolbox_2.0/media",
				"patcherrelativepath" : "../../../UBCToolbox/UBCToolbox_2.0/media",
				"type" : "PNG",
				"implicit" : 1
			}
, 			{
				"name" : "powerButton03.png",
				"bootpath" : "~/Documents/GitHub/UBCToolbox/UBCToolbox_2.0/media",
				"patcherrelativepath" : "../../../UBCToolbox/UBCToolbox_2.0/media",
				"type" : "PNG",
				"implicit" : 1
			}
, 			{
				"name" : "ol.pngknob.js",
				"bootpath" : "~/Documents/GitHub/UBCToolbox/UBCToolbox_2.0/media",
				"patcherrelativepath" : "../../../UBCToolbox/UBCToolbox_2.0/media",
				"type" : "TEXT",
				"implicit" : 1
			}
, 			{
				"name" : "delayB.json",
				"bootpath" : "~/Documents/GitHub/UBCToolbox/UBCToolbox_2.0/patchers/effects/delay/lib",
				"patcherrelativepath" : "../../../UBCToolbox/UBCToolbox_2.0/patchers/effects/delay/lib",
				"type" : "JSON",
				"implicit" : 1
			}
, 			{
				"name" : "write01.png",
				"bootpath" : "~/Documents/GitHub/UBCToolbox/UBCToolbox_2.0/media",
				"patcherrelativepath" : "../../../UBCToolbox/UBCToolbox_2.0/media",
				"type" : "PNG",
				"implicit" : 1
			}
, 			{
				"name" : "read01.png",
				"bootpath" : "~/Documents/GitHub/UBCToolbox/UBCToolbox_2.0/media",
				"patcherrelativepath" : "../../../UBCToolbox/UBCToolbox_2.0/media",
				"type" : "PNG",
				"implicit" : 1
			}
, 			{
				"name" : "ubctoolbox.png",
				"bootpath" : "~/Documents/GitHub/UBCToolbox/UBCToolbox_2.0/media",
				"patcherrelativepath" : "../../../UBCToolbox/UBCToolbox_2.0/media",
				"type" : "PNG",
				"implicit" : 1
			}
, 			{
				"name" : "samplerNew8BP.maxpat",
				"bootpath" : "~/Documents/Max 8/Library/UBCToolbox_1.06/Modules/Players/samplerNew",
				"patcherrelativepath" : "../../../../Max 8/Library/UBCToolbox_1.06/Modules/Players/samplerNew",
				"type" : "JSON",
				"implicit" : 1
			}
, 			{
				"name" : "samplerNew8.maxpat",
				"bootpath" : "~/Documents/Max 8/Library/UBCToolbox_1.06/Modules/Players/samplerNew/lib",
				"patcherrelativepath" : "../../../../Max 8/Library/UBCToolbox_1.06/Modules/Players/samplerNew/lib",
				"type" : "JSON",
				"implicit" : 1
			}
, 			{
				"name" : "poly3.maxpat",
				"bootpath" : "~/Documents/GitHub/UBCToolbox/UBCToolbox_2.0/patchers/ubcLib",
				"patcherrelativepath" : "../../../UBCToolbox/UBCToolbox_2.0/patchers/ubcLib",
				"type" : "JSON",
				"implicit" : 1
			}
, 			{
				"name" : "parsePan.maxpat",
				"bootpath" : "~/Documents/GitHub/UBCToolbox/UBCToolbox_2.0/patchers/ubcLib",
				"patcherrelativepath" : "../../../UBCToolbox/UBCToolbox_2.0/patchers/ubcLib",
				"type" : "JSON",
				"implicit" : 1
			}
, 			{
				"name" : "sampleUnitSt.maxpat",
				"bootpath" : "~/Documents/Max 8/Library/UBCToolbox_1.06/Modules/Players/samplerNew/lib",
				"patcherrelativepath" : "../../../../Max 8/Library/UBCToolbox_1.06/Modules/Players/samplerNew/lib",
				"type" : "JSON",
				"implicit" : 1
			}
, 			{
				"name" : "samplerUnitNew.maxpat",
				"bootpath" : "~/Documents/Max 8/Library/UBCToolbox_1.06/Modules/Players/samplerNew/lib",
				"patcherrelativepath" : "../../../../Max 8/Library/UBCToolbox_1.06/Modules/Players/samplerNew/lib",
				"type" : "JSON",
				"implicit" : 1
			}
, 			{
				"name" : "transratio.maxpat",
				"bootpath" : "~/Library/Application Support/Cycling '74/Max 8/Examples/max-tricks/notes-and-pitch/pitch-to-freq-ratio",
				"patcherrelativepath" : "../../../../../Library/Application Support/Cycling '74/Max 8/Examples/max-tricks/notes-and-pitch/pitch-to-freq-ratio",
				"type" : "JSON",
				"implicit" : 1
			}
, 			{
				"name" : "flash2.maxpat",
				"bootpath" : "~/Documents/GitHub/UBCToolbox/UBCToolbox_2.0/patchers/ubcLib",
				"patcherrelativepath" : "../../../UBCToolbox/UBCToolbox_2.0/patchers/ubcLib",
				"type" : "JSON",
				"implicit" : 1
			}
, 			{
				"name" : "samplerNewInfo.maxpat",
				"bootpath" : "~/Documents/Max 8/Library/UBCToolbox_1.06/Modules/Players/samplerNew/lib",
				"patcherrelativepath" : "../../../../Max 8/Library/UBCToolbox_1.06/Modules/Players/samplerNew/lib",
				"type" : "JSON",
				"implicit" : 1
			}
, 			{
				"name" : "moreAboutDataStructures.maxpat",
				"bootpath" : "~/Documents/GitHub/UBCToolbox/UBCToolbox_2.0/help/ubclib",
				"patcherrelativepath" : "../../../UBCToolbox/UBCToolbox_2.0/help/ubclib",
				"type" : "JSON",
				"implicit" : 1
			}
, 			{
				"name" : "largeGreen.png",
				"bootpath" : "~/Documents/GitHub/UBCToolbox/UBCToolbox_2.0/media",
				"patcherrelativepath" : "../../../UBCToolbox/UBCToolbox_2.0/media",
				"type" : "PNG",
				"implicit" : 1
			}
, 			{
				"name" : "bControl.maxpat",
				"bootpath" : "~/Documents/GitHub/UBCToolbox/UBCToolbox_2.0/patchers/ubcLib",
				"patcherrelativepath" : "../../../UBCToolbox/UBCToolbox_2.0/patchers/ubcLib",
				"type" : "JSON",
				"implicit" : 1
			}
, 			{
				"name" : "jointpickerBP.maxpat",
				"bootpath" : "~/Documents/GitHub/KiCASSGesture/nuitrackKiCASS/KiCASS 2.3 Client - MAX",
				"patcherrelativepath" : ".",
				"type" : "JSON",
				"implicit" : 1
			}
 ],
		"autosave" : 0
	}

}
